<svg width="109" height="30" viewBox="0 0 109 30" fill="none" xmlns="http://www.w3.org/2000/svg">
<g clip-path="url(#clip0)">
<path d="M13.2134 0.0328587C14.1601 0.0673203 15.0589 0.277295 15.8528 0.843908C16.4284 1.25504 16.8273 1.81364 17.085 2.48444C17.4684 3.48062 17.7107 4.50966 17.6389 5.58758C17.5525 6.8827 17.2192 8.08805 16.2841 9.02733C15.7047 9.60917 14.9902 9.91372 14.2148 10.0884C14.1354 10.1061 14.0551 10.1237 13.9741 10.1702C14.13 10.207 14.2874 10.2399 14.4417 10.2816C15.4339 10.5476 16.2509 11.083 16.8196 11.983C17.2231 12.6218 17.4545 13.3326 17.5695 14.0836C17.8025 15.6111 17.5132 17.0513 16.8118 18.3929C16.3466 19.2825 15.5697 19.793 14.6407 20.0655C14.0235 20.2466 13.3924 20.3003 12.7543 20.2995C9.32329 20.2979 5.89148 20.2987 2.46044 20.2939C1.87407 20.2931 1.31779 20.168 0.844064 19.7777C0.320189 19.3466 0.118046 18.7479 0.0362624 18.0883C0.028547 18.0274 0.0470639 17.9609 0 17.9088C0 17.5938 0 17.2789 0 16.9639C0.0632663 16.8742 0.0516932 16.7644 0.0694386 16.6634C0.236091 15.7257 0.707502 15.0653 1.62255 14.7992C1.99983 14.6895 2.38406 14.6638 2.77291 14.6638C5.49413 14.663 8.21535 14.6622 10.9366 14.6614C11.1202 14.6614 11.2992 14.6374 11.4697 14.566C11.766 14.4426 11.9265 14.1878 11.9303 13.8447C11.9349 13.4657 11.7876 13.2164 11.479 13.0818C11.2328 12.9736 10.9721 12.968 10.7121 12.968C8.0271 12.9672 5.34214 12.968 2.65718 12.9672C2.42109 12.9672 2.18577 12.9608 1.95122 12.9223C1.0601 12.7764 0.445178 12.2884 0.159709 11.3827C0.077154 11.1207 0.0648093 10.845 0 10.5789C0 10.3144 0 10.05 0 9.78549C0.0246893 9.6252 0.0455208 9.46411 0.0740678 9.30383C0.202143 8.59215 0.506902 8.0023 1.14574 7.64807C1.56777 7.41405 2.02761 7.33952 2.49593 7.33871C5.30819 7.3331 8.12123 7.33391 10.9335 7.33391C11.0986 7.33391 11.2583 7.30826 11.4149 7.25697C11.739 7.15038 11.9249 6.8827 11.9311 6.51965C11.9373 6.12454 11.7644 5.85446 11.4311 5.73184C11.192 5.64368 10.9435 5.64128 10.6951 5.64128C8.11274 5.64128 5.53117 5.64128 2.94882 5.64048C2.68804 5.64048 2.42726 5.64449 2.16803 5.62685C1.21517 5.56274 0.470639 5.10112 0.163566 4.07368C0.0748393 3.77875 0.0524647 3.47421 0 3.17367C0 2.92202 0 2.66957 0 2.41792C0.0239177 2.27126 0.0462924 2.1246 0.0717532 1.97874C0.216803 1.15006 0.582512 0.492079 1.38646 0.188337C1.59709 0.108995 1.82006 0.0617103 2.03686 0C2.08547 0 2.13408 0 2.18269 0C2.21895 0.0641146 2.27913 0.0376673 2.33005 0.0376673C5.77652 0.0384687 9.22221 0.0376673 12.6687 0.0368659C12.85 0.0376673 13.0321 0.0344616 13.2134 0.0328587Z" fill="#FF4E03"/>
<path d="M109 17.8335C108.945 18.1003 108.921 18.3752 108.828 18.6333C108.515 19.4996 107.88 19.9508 107.038 20.1368C106.634 20.2265 106.224 20.2626 105.811 20.2626C102.7 20.261 99.5903 20.2618 96.4794 20.2578C95.5142 20.257 94.576 20.1023 93.6811 19.7064C92.4497 19.1614 91.6234 18.2173 91.145 16.9343C90.8441 16.1256 90.6875 15.2825 90.662 14.417C90.5903 11.9117 90.6482 9.40641 90.6304 6.90033C90.6242 6.05001 90.6713 5.2037 90.8487 4.37101C91.3117 2.19913 92.523 0.76697 94.6455 0.238025C95.076 0.130633 95.5135 0.0673203 95.9556 0.0360644C95.9887 0.0336601 96.0304 0.0488873 96.0481 0C96.133 0 96.2179 0 96.3028 0C96.3676 0.0713274 96.4517 0.0368659 96.5257 0.0368659C99.5355 0.0384687 102.545 0.0384687 105.554 0.0376673C105.712 0.0376673 105.868 0.0336601 106.026 0.0312558C106.336 0.0288515 106.641 0.0809446 106.941 0.153875C107.847 0.374269 108.541 0.863142 108.826 1.83127C109.013 2.4636 109.012 3.10715 108.863 3.7499C108.681 4.5321 108.219 5.06585 107.51 5.37681C106.989 5.60521 106.442 5.70219 105.883 5.70299C102.931 5.7094 99.9791 5.7078 97.0272 5.7086C96.93 5.7086 96.8328 5.70539 96.7364 5.71501C96.3066 5.75588 96.0805 5.9875 96.0327 6.42989C96.025 6.50442 96.0219 6.58056 96.0219 6.65589C96.0211 8.94077 96.0211 11.2257 96.0227 13.5113C96.0227 13.6556 96.0312 13.8007 96.0489 13.9433C96.0914 14.2879 96.3105 14.5115 96.6415 14.5508C96.7433 14.5628 96.8475 14.566 96.9501 14.566C99.1081 14.5676 101.266 14.5676 103.424 14.5724C103.571 14.5724 103.615 14.5324 103.614 14.3737C103.609 13.0393 103.599 11.7041 103.622 10.3705C103.633 9.67488 103.865 9.05217 104.388 8.58173C105.145 7.90212 106.028 7.71298 106.983 7.93257C107.854 8.13293 108.507 8.63944 108.833 9.53784C108.92 9.77827 108.938 10.0323 109 10.2776C109 12.7957 109 15.3146 109 17.8335Z" fill="#FF4E03"/>
<path d="M86.7351 6.90098e-05C86.7351 3.03349 86.7343 6.06691 86.7389 9.10033C86.7389 9.26302 86.6903 9.29507 86.5445 9.29427C84.8903 9.28866 83.2362 9.29107 81.5812 9.29027C81.322 9.29027 81.3204 9.28946 81.3204 9.01137C81.3197 7.9663 81.3158 6.92203 81.3243 5.87697C81.3258 5.70466 81.2726 5.66699 81.1191 5.66779C80.2164 5.67421 79.3129 5.66699 78.4102 5.67421C78.2597 5.67501 78.2165 5.63253 78.2173 5.47465C78.2227 3.64979 78.2219 1.82493 78.2219 -0.000732422C81.0589 6.90098e-05 83.8966 6.90098e-05 86.7351 6.90098e-05Z" fill="#32A7C2"/>
<path d="M39.5835 30C39.3783 29.9407 39.163 29.9302 38.9655 29.8277C38.518 29.5944 38.2704 29.1961 38.113 28.7305C37.7457 27.647 37.7519 26.5707 38.2627 25.536C38.7348 24.5791 39.9192 24.289 40.7277 24.9133C41.0911 25.1938 41.2477 25.6089 41.3658 26.0441C41.382 26.1042 41.3573 26.1363 41.2994 26.1539C41.0903 26.2164 40.8813 26.2773 40.6753 26.3495C40.568 26.3871 40.5703 26.3142 40.5526 26.2469C40.4808 25.9728 40.3682 25.7251 40.1074 25.5929C39.572 25.3204 38.9848 25.6322 38.8274 26.2861C38.6585 26.9882 38.6608 27.6943 38.8614 28.3907C39.0365 28.9998 39.646 29.2747 40.1167 28.9613C40.3906 28.7794 40.4878 28.4757 40.5611 28.1703C40.5966 28.022 40.6205 27.9587 40.7794 28.0493C40.9368 28.1391 41.1143 28.1919 41.284 28.2577C41.3465 28.2817 41.3928 28.3049 41.3712 28.3907C41.2277 28.9477 41.0232 29.463 40.5186 29.7812C40.3204 29.9062 40.0935 29.9423 39.8744 30.0016C39.7772 30 39.68 30 39.5835 30Z" fill="#808080"/>
<path d="M-0.000205023 24.672C0.254403 24.6712 0.509011 24.6752 0.762847 24.6688C0.858518 24.6664 0.89941 24.6977 0.924871 24.7971C1.19877 25.8565 1.47266 26.9152 1.7589 27.9707C1.80597 28.143 1.82217 28.3274 1.9217 28.5133C2.01043 28.1671 2.09375 27.8417 2.17631 27.5171C2.41008 26.6019 2.64309 25.6858 2.87609 24.7698C2.89384 24.6993 2.92624 24.668 3.00185 24.6696C3.24952 24.6744 3.49795 24.6712 3.76568 24.6712C3.60443 25.2579 3.44858 25.8285 3.29041 26.3991C3.07052 27.1957 2.84909 27.9916 2.62766 28.7874C2.53584 29.1192 2.4394 29.4494 2.35376 29.7828C2.32676 29.8885 2.28047 29.9182 2.17939 29.9134C1.99191 29.9054 1.80365 29.9054 1.61617 29.9166C1.48964 29.9238 1.42791 29.8893 1.39165 29.7507C1.17022 28.91 0.937215 28.0717 0.708068 27.2326C0.480464 26.3991 0.25286 25.5664 0.0244842 24.7329C0.0221696 24.7233 0.00751037 24.7169 -0.000976562 24.7089C-0.000205023 24.6977 -0.000205023 24.6849 -0.000205023 24.672Z" fill="#808080"/>
<path d="M44.8226 0C44.8226 0.0120215 44.8233 0.0248444 44.8233 0.0368659C44.6783 0.0368659 44.5332 0.0376673 44.3882 0.0376673C40.8985 0.0376673 37.4096 0.0376673 33.9199 0.0376673C33.7934 0.0376673 33.6661 0.035263 33.5396 0.0336601C33.5457 0.0232415 33.5473 0.0120215 33.5442 0C37.3039 0 41.0628 0 44.8226 0Z" fill="#FF4E04"/>
<path d="M13.2135 0.0330338C13.0322 0.0346367 12.8509 0.0378424 12.6696 0.0378424C9.22312 0.0386439 5.77742 0.0386439 2.33096 0.0386439C2.28004 0.0386439 2.21986 0.0650911 2.18359 0.000976562C5.85844 0.000976562 9.53251 0.000976562 13.2073 0.000976562C13.2043 0.0121966 13.2066 0.0234167 13.2135 0.0330338Z" fill="#FF4E04"/>
<path d="M106.017 6.901e-05C106.02 0.0104876 106.023 0.0209062 106.026 0.0305234C105.869 0.0329277 105.712 0.0369349 105.555 0.0369349C102.545 0.0377363 99.536 0.0377363 96.5262 0.0361334C96.4521 0.0361334 96.368 0.070595 96.3032 -0.000732422C99.5406 6.901e-05 102.779 6.901e-05 106.017 6.901e-05Z" fill="#FF4E04"/>
<path d="M76.9841 0C76.9834 0.0128229 76.9826 0.0256458 76.9818 0.0392702C76.414 0.0384687 75.8461 0.0384687 75.2783 0.0376673C74.6927 0.0368659 74.1071 0.0344616 73.5215 0.0328587C73.5284 0.0232415 73.53 0.0120215 73.5277 0C74.6796 0 75.8322 0 76.9841 0Z" fill="#FF4E04"/>
<path d="M21.2388 29.9785C21.2449 29.9841 21.248 29.9913 21.2473 30.0001C21.0536 30.0001 20.8592 30.0001 20.6655 30.0001C20.6717 29.9889 20.6779 29.9785 20.684 29.9673C20.8684 29.9705 21.0536 29.9745 21.2388 29.9785Z" fill="#32A7C2"/>
<path d="M33.5388 0.0336914C33.6654 0.0352943 33.7927 0.0368971 33.9192 0.0376986C37.4089 0.0376986 40.8978 0.0376986 44.3875 0.0376986C44.5325 0.0376986 44.6776 0.0368971 44.8226 0.0368971C45.7986 0.0633444 46.662 0.791045 46.932 1.80966C47.1388 2.59106 46.9791 3.32197 46.6635 4.03684C46.4914 4.42554 46.2137 4.73569 45.9699 5.06909C43.9639 7.8172 41.9509 10.5597 39.9403 13.3038C39.6186 13.743 39.2976 14.1822 38.9651 14.6374C39.0592 14.6823 39.1433 14.6638 39.222 14.6638C40.762 14.6654 42.302 14.6646 43.842 14.6638C44.4376 14.6638 45.0132 14.7464 45.5209 15.1062C46.216 15.5991 46.5871 16.302 46.6674 17.1547C46.7638 18.1725 46.4683 19.0557 45.6983 19.7297C45.2709 20.104 44.7593 20.2763 44.2069 20.2891C43.4616 20.3067 42.7155 20.2995 41.9695 20.2995C39.2837 20.2995 36.5972 20.2987 33.9115 20.2963C33.3923 20.2955 32.8861 20.2162 32.4093 19.9901C31.6301 19.6207 31.2381 18.9579 31.1023 18.1068C30.9403 17.0906 31.3199 16.2555 31.9526 15.5302C32.4618 14.9467 32.9154 14.3184 33.3876 13.7061C34.7108 11.9911 36.0232 10.2664 37.3402 8.5457C38.0392 7.63287 38.739 6.72084 39.4365 5.80641C39.4674 5.76553 39.536 5.72787 39.5052 5.66776C39.4743 5.60845 39.4049 5.64532 39.3539 5.64532C37.547 5.64372 35.74 5.64291 33.9331 5.64291C33.5743 5.64291 33.2202 5.61647 32.8769 5.49946C31.9248 5.17408 31.2142 4.20194 31.1424 3.13924C31.0799 2.20718 31.3137 1.38651 31.968 0.72132C32.4047 0.277327 32.937 0.068153 33.5388 0.0336914Z" fill="#FF4E03"/>
<path d="M73.5212 0.032959C74.1068 0.0345618 74.6924 0.0361647 75.278 0.0377676C75.8458 0.038569 76.4137 0.038569 76.9815 0.0393704C76.9831 0.738219 76.9854 1.43707 76.9862 2.13592C76.9869 3.26914 76.9846 4.40317 76.9908 5.53639C76.9916 5.67584 76.9607 5.71351 76.8241 5.71271C75.9693 5.70549 75.1144 5.7103 74.2595 5.7071C74.143 5.7063 74.0296 5.72393 73.9178 5.75037C73.6307 5.8193 73.4363 6.07656 73.4132 6.41075C73.4062 6.50452 73.4047 6.59909 73.4047 6.69366C73.4062 9.04907 73.4062 11.4037 73.4116 13.7591C73.4124 14.2784 73.6516 14.5317 74.1508 14.5605C74.3382 14.5709 74.5265 14.5653 74.7148 14.5653C76.6251 14.5653 78.5346 14.5653 80.445 14.5645C80.4936 14.5645 80.5422 14.5661 80.5908 14.5637C81.0869 14.5373 81.3415 14.268 81.3446 13.7487C81.3492 12.7541 81.3523 11.7587 81.3431 10.7641C81.3415 10.5902 81.394 10.5558 81.546 10.5566C83.2194 10.5614 84.8929 10.5614 86.5664 10.5566C86.6991 10.5566 86.7392 10.5862 86.7384 10.7313C86.7315 11.814 86.7485 12.8975 86.7299 13.9803C86.7107 15.1175 86.5494 16.2323 86.0849 17.2774C85.4476 18.7135 84.3582 19.5839 82.9047 19.991C82.2041 20.1874 81.4896 20.2635 80.7652 20.2619C78.3402 20.2579 75.9145 20.2803 73.4895 20.2419C72.2165 20.2218 71.0106 19.8852 69.9821 19.0469C69.2823 18.4763 68.814 17.7334 68.5031 16.8759C68.1412 15.8797 68.0193 14.8418 68.0162 13.7879C68.0085 11.3636 68.0093 8.93927 68.0162 6.51494C68.0193 5.42259 68.1466 4.34867 68.5347 3.32123C69.1573 1.67269 70.3239 0.682119 71.9611 0.25736C72.4727 0.123521 72.9927 0.0433776 73.5212 0.032959Z" fill="#FF4E03"/>
<path d="M51.0077 10.1397C51.0077 7.69698 51.0046 5.25422 51.01 2.81226C51.0116 2.19275 51.1188 1.59488 51.51 1.09639C52.1272 0.309383 52.9451 -0.00157236 53.9033 0.052925C54.5483 0.0897909 55.1138 0.339036 55.5953 0.785434C56.204 1.34884 56.3676 2.08776 56.3676 2.8956C56.3653 6.72324 56.3668 10.5509 56.3668 14.3785C56.3668 14.6638 56.3668 14.6638 56.6469 14.6638C58.3867 14.6654 60.1265 14.6751 61.8664 14.6654C63.3747 14.6566 64.1887 15.7161 64.3638 16.9671C64.4865 17.8415 64.3391 18.6542 63.8214 19.3771C63.3971 19.9693 62.8161 20.2723 62.1256 20.2827C60.5192 20.3083 58.9129 20.2987 57.3066 20.2987C55.9973 20.2987 54.688 20.3083 53.3787 20.2835C52.6951 20.2707 52.0655 20.0591 51.5949 19.4989C51.2469 19.0853 51.1034 18.5852 51.0417 18.0515C51.0046 17.7317 51.0077 17.4111 51.0077 17.0906C51.0077 14.7736 51.0077 12.4567 51.0077 10.1397Z" fill="#FF4E03"/>
<path d="M26.9986 10.1847C26.9986 12.6091 26.9963 15.0326 27.0001 17.4569C27.0017 18.1021 26.8944 18.712 26.4963 19.2273C26.0126 19.8532 25.3706 20.1842 24.6053 20.2515C23.8414 20.3188 23.137 20.1457 22.5221 19.6496C21.9905 19.2217 21.7212 18.6486 21.6418 17.9618C21.6032 17.6284 21.6109 17.2966 21.6109 16.964C21.6094 12.2612 21.6094 7.55763 21.6094 2.85483C21.6094 2.24013 21.7097 1.64947 22.0731 1.14297C22.4912 0.56113 23.0645 0.23094 23.7419 0.0995054C24.4224 -0.0327308 25.0813 0.0474124 25.697 0.394432C26.5796 0.890519 26.9916 1.68073 26.9963 2.70496C27.004 4.37354 26.9986 6.04212 26.9986 7.7099C26.9986 8.53458 26.9986 9.36005 26.9986 10.1847Z" fill="#FF4E03"/>
<path d="M62.7597 26.594C62.7597 26.7094 62.7597 26.8184 62.7597 26.9274C62.7597 27.8651 62.7566 28.8036 62.762 29.7412C62.7628 29.8799 62.7343 29.928 62.5946 29.9127C62.4573 29.8975 62.3153 29.9031 62.1772 29.9167C62.0298 29.932 61.9944 29.8743 61.9951 29.7268C62.0013 28.7386 61.999 27.7505 61.999 26.7623C61.999 26.114 62.0021 25.4656 61.9959 24.8172C61.9951 24.7018 62.0206 24.6626 62.1348 24.669C62.3462 24.6794 62.5908 24.6097 62.7613 24.6978C62.931 24.786 62.9673 25.0609 63.0606 25.2548C63.5035 26.1757 63.9409 27.0997 64.3799 28.0222C64.3923 28.0486 64.4093 28.0735 64.4239 28.0999C64.4856 28.0678 64.4563 28.0182 64.4563 27.9805C64.4586 26.9418 64.4617 25.9032 64.4563 24.8645C64.4556 24.7227 64.4833 24.6578 64.6338 24.669C64.8143 24.6834 65.0496 24.6073 65.1615 24.7002C65.2803 24.798 65.1985 25.0529 65.1993 25.2388C65.2024 26.7303 65.1985 28.2225 65.2055 29.714C65.2063 29.8855 65.1553 29.9071 65.0033 29.9208C64.5937 29.9568 64.3283 29.8783 64.1385 29.4118C63.7619 28.4838 63.2898 27.5974 62.8554 26.6958C62.84 26.6621 62.833 26.6116 62.7597 26.594Z" fill="#808080"/>
<path d="M25.9717 27.3009C25.9717 26.5074 25.9717 25.7148 25.9717 24.9214C25.9717 24.6754 25.9724 24.6722 26.2139 24.6722C27.0688 24.6706 27.9229 24.6746 28.7777 24.669C28.9236 24.6682 28.9822 24.7082 28.9706 24.8693C28.9567 25.0569 28.9652 25.2468 28.9706 25.4351C28.9729 25.5337 28.9374 25.565 28.8425 25.5642C28.2122 25.5577 27.5819 25.5593 26.9523 25.5521C26.8281 25.5505 26.7663 25.569 26.7748 25.7236C26.7887 26.0001 26.7879 26.2774 26.7756 26.5539C26.7694 26.695 26.8188 26.715 26.9392 26.7142C27.5147 26.7078 28.0911 26.7142 28.6666 26.7086C28.7816 26.7078 28.8256 26.7342 28.8186 26.8617C28.8078 27.0564 28.8071 27.252 28.8186 27.4467C28.8263 27.5766 28.7808 27.6038 28.6659 27.6022C28.1019 27.5958 27.5387 27.603 26.9747 27.5942C26.8204 27.5918 26.7671 27.6286 26.7741 27.801C26.7895 28.1528 26.7849 28.5062 26.7756 28.858C26.7725 28.9903 26.8065 29.0263 26.9353 29.0247C27.5842 29.0175 28.2323 29.0255 28.8811 29.0167C29.0185 29.0151 29.0609 29.0528 29.0524 29.1946C29.0401 29.395 29.0408 29.597 29.0485 29.7981C29.0524 29.8967 29.0177 29.9135 28.9344 29.9135C27.9831 29.9111 27.0318 29.9087 26.0804 29.9143C25.9447 29.9151 25.9732 29.831 25.9732 29.7548C25.9717 28.9374 25.9717 28.1191 25.9717 27.3009Z" fill="#808080"/>
<path d="M47.8779 27.2986C47.8779 28.1104 47.8748 28.9231 47.8802 29.7349C47.881 29.8672 47.8617 29.9289 47.7159 29.9168C47.5469 29.9024 47.3764 29.9072 47.2074 29.9176C47.0955 29.9241 47.0601 29.8848 47.0616 29.7702C47.067 29.1218 47.0616 28.4735 47.0724 27.8251C47.0747 27.66 47.0338 27.6143 46.8718 27.6191C46.4536 27.6328 46.0355 27.628 45.6173 27.6183C45.4869 27.6151 45.4529 27.66 45.4545 27.7882C45.4607 28.4118 45.4583 29.0345 45.4607 29.658C45.4614 29.9144 45.4622 29.9152 45.2215 29.9144C45.0818 29.9144 44.9414 29.8984 44.8041 29.9144C44.6629 29.9313 44.6475 29.8648 44.6482 29.7461C44.6505 28.1032 44.6505 26.4595 44.6475 24.8165C44.6475 24.7083 44.676 24.6715 44.7794 24.6739C44.9553 24.6787 45.1312 24.6803 45.3064 24.6691C45.4306 24.6611 45.4614 24.7123 45.4607 24.8318C45.4568 25.4112 45.4622 25.9906 45.456 26.5693C45.4545 26.6935 45.4745 26.7496 45.6111 26.7472C46.0355 26.7384 46.4598 26.7352 46.8841 26.7472C47.0454 26.752 47.0739 26.6903 47.0716 26.5428C47.0655 25.989 47.0739 25.4344 47.0662 24.8806C47.0639 24.7196 47.1017 24.6514 47.2676 24.6683C47.4181 24.6835 47.5708 24.6779 47.722 24.6699C47.8486 24.6635 47.8833 24.7131 47.8825 24.843C47.8756 25.6612 47.8779 26.4795 47.8779 27.2986Z" fill="#808080"/>
<path d="M52.8637 24.6713C53.3081 24.6713 53.3011 24.6737 53.4323 25.1049C53.8744 26.5586 54.3219 28.0108 54.7671 29.4638C54.8018 29.5776 54.8365 29.6914 54.872 29.8052C54.8959 29.8814 54.8921 29.915 54.7941 29.911C54.5827 29.9014 54.3697 29.9086 54.1583 29.915C54.0573 29.9183 54.0086 29.8806 53.9809 29.7756C53.8983 29.467 53.8003 29.1633 53.7162 28.8548C53.6885 28.7538 53.6483 28.7129 53.5419 28.7145C53.0874 28.7209 52.6322 28.7217 52.1778 28.7137C52.0659 28.7113 52.0327 28.7602 52.0065 28.8556C51.9232 29.1633 51.8321 29.4694 51.7503 29.7772C51.7241 29.8774 51.6809 29.9215 51.5744 29.9158C51.3931 29.9062 51.211 29.9054 51.0305 29.9166C50.8901 29.9263 50.8461 29.8942 50.8932 29.7411C51.1092 29.0423 51.316 28.341 51.5281 27.6406C51.8105 26.7069 52.0991 25.7749 52.3722 24.838C52.4123 24.7001 52.4617 24.6544 52.5905 24.6681C52.6808 24.6785 52.7726 24.6713 52.8637 24.6713ZM52.8598 25.9744C52.8436 25.988 52.8297 25.9936 52.8274 26.0025C52.66 26.5795 52.4941 27.1565 52.3267 27.7335C52.2935 27.849 52.3653 27.8409 52.4355 27.8409C52.714 27.8401 52.9933 27.8353 53.2718 27.8433C53.3945 27.8466 53.4169 27.8145 53.3798 27.6935C53.2548 27.2872 53.1437 26.876 53.0172 26.4697C52.9663 26.3062 52.9431 26.1307 52.8598 25.9744Z" fill="#808080"/>
<path d="M6.33643 29.9095C6.39661 29.5737 6.51619 29.2643 6.61032 28.9486C7.02001 27.5709 7.4405 26.1964 7.84941 24.8188C7.88568 24.6962 7.93891 24.6633 8.05156 24.6681C8.23904 24.6761 8.4273 24.6785 8.61478 24.6681C8.73668 24.6609 8.78143 24.7154 8.81538 24.8276C9.31842 26.4777 9.8261 28.1271 10.3322 29.7764C10.3453 29.8181 10.3646 29.8582 10.343 29.9135C10.1116 29.9135 9.87625 29.9071 9.64093 29.9159C9.51902 29.9207 9.4735 29.867 9.44341 29.7516C9.36703 29.4607 9.27367 29.1754 9.19652 28.8844C9.16489 28.765 9.12014 28.7097 8.98743 28.7121C8.54534 28.7218 8.10248 28.7194 7.66039 28.7137C7.55931 28.7121 7.50685 28.7386 7.47907 28.8452C7.39961 29.1537 7.30702 29.4591 7.22601 29.7676C7.20055 29.8646 7.16892 29.9175 7.05627 29.9127C6.82172 29.9023 6.58563 29.9095 6.33643 29.9095ZM8.34628 25.9752C8.32391 25.9809 8.31465 25.9809 8.31311 25.9833C8.10479 26.5579 7.97517 27.1574 7.79386 27.7408C7.76994 27.8185 7.80621 27.8418 7.87565 27.841C8.17809 27.8402 8.48053 27.841 8.78297 27.841C8.86553 27.841 8.88868 27.8057 8.86167 27.7224C8.81307 27.5741 8.7714 27.4234 8.72742 27.2736C8.60012 26.8416 8.47282 26.408 8.34628 25.9752Z" fill="#808080"/>
<path d="M21.2389 29.9785C21.0537 29.9745 20.8686 29.9705 20.6834 29.9673C19.9581 29.8816 19.5022 29.4087 19.408 28.6594C19.3455 28.1649 19.3486 27.6688 19.3486 27.1719C19.3478 26.4042 19.3532 25.6364 19.3448 24.8686C19.3432 24.7075 19.3926 24.6602 19.5376 24.6699C19.6827 24.6795 19.8293 24.6819 19.9736 24.6691C20.1186 24.6554 20.1611 24.7083 20.1595 24.8574C20.1533 25.5122 20.1549 26.1661 20.1572 26.8209C20.1595 27.3242 20.1441 27.8275 20.1811 28.33C20.2351 29.0641 20.9195 29.2244 21.4048 28.9856C21.6717 28.8541 21.6841 28.5656 21.7172 28.3043C21.7759 27.8411 21.752 27.3747 21.7535 26.9091C21.7558 26.223 21.7574 25.537 21.752 24.851C21.7512 24.7155 21.7821 24.657 21.924 24.6691C22.093 24.6827 22.2627 24.6779 22.4325 24.6747C22.5196 24.6731 22.5652 24.6931 22.5629 24.7997C22.5374 26.0764 22.6176 27.3539 22.5065 28.6289C22.4649 29.1034 22.2812 29.4961 21.8893 29.7662C21.6918 29.9016 21.4688 29.9513 21.2389 29.9785Z" fill="#808080"/>
<path d="M14.1651 26.86C14.1651 27.502 14.1635 28.1439 14.1659 28.7851C14.1666 29.0311 14.1088 29.0207 14.4012 29.0215C14.9467 29.0231 15.4921 29.0263 16.0368 29.0199C16.1572 29.0183 16.2112 29.0367 16.2012 29.1802C16.1873 29.3741 16.195 29.5697 16.2012 29.7644C16.2043 29.871 16.1834 29.9167 16.0623 29.9159C15.202 29.9095 14.3418 29.9111 13.4815 29.9159C13.3781 29.9167 13.3457 29.8846 13.348 29.7797C13.3527 29.4903 13.3496 29.201 13.3496 28.9117C13.3496 27.5525 13.3519 26.1933 13.3457 24.8348C13.3449 24.693 13.3874 24.6617 13.5093 24.6689C13.6721 24.6777 13.8364 24.6826 14 24.6721C14.1419 24.6633 14.1682 24.7266 14.1674 24.8589C14.162 25.5265 14.1651 26.1933 14.1651 26.86Z" fill="#808080"/>
<path d="M58.6717 27.2993C58.6717 28.104 58.6694 28.9094 58.674 29.714C58.6748 29.8583 58.6516 29.932 58.4896 29.916C58.3276 29.9 58.1625 29.904 57.9997 29.9168C57.8639 29.928 57.8438 29.8695 57.8438 29.7445C57.8477 28.128 57.8492 26.5123 57.8423 24.8958C57.8415 24.7163 57.8832 24.6474 58.0622 24.6674C58.218 24.685 58.377 24.6778 58.5343 24.6738C58.6431 24.6714 58.6748 24.7083 58.674 24.8277C58.6686 25.6516 58.6717 26.4754 58.6717 27.2993Z" fill="#808080"/>
</g>
<defs>
<clipPath id="clip0">
<rect width="109" height="30" fill="white"/>
</clipPath>
</defs>
</svg>
