<svg width="65" height="65" viewBox="0 0 65 65" fill="none" xmlns="http://www.w3.org/2000/svg">
<g clip-path="url(#clip0_1067_1766)">
<path d="M36.1742 1.00626L36.1742 1.00631C36.0952 1.55393 36.476 2.06226 37.025 2.14105C44.2358 3.17778 50.8608 6.78161 55.6797 12.2892C60.5441 17.8496 63.2234 24.9821 63.2234 32.3734C63.2234 40.5327 60.0407 48.2032 54.2609 53.9727C48.4807 59.7421 40.7967 62.9197 32.6228 62.9197C24.5888 62.9197 16.9986 59.8352 11.2506 54.2351C10.8537 53.8484 10.2184 53.8562 9.83141 54.2523C9.44384 54.6479 9.45171 55.2827 9.84814 55.669C15.9736 61.6369 24.0619 64.9235 32.6228 64.9235C41.3329 64.9235 49.5218 61.5376 55.6806 55.3893C61.8394 49.2421 65.2314 41.0676 65.2314 32.3734C65.2314 24.4971 62.3764 16.8965 57.1919 10.9712C52.0573 5.10302 44.9972 1.26222 37.311 0.157605C36.7626 0.0788081 36.2537 0.458692 36.1742 1.00626Z" fill="#FFB320" stroke="#FFB320" stroke-width="0.1"/>
<path d="M2.02198 32.3731C2.02198 24.2138 5.20518 16.5433 10.985 10.7739C16.7647 5.00436 24.4492 1.82685 32.6231 1.82685C33.1773 1.82685 33.6266 1.37857 33.6266 0.825197C33.6266 0.271858 33.1773 -0.176953 32.6231 -0.176953C23.9129 -0.176953 15.7241 3.20892 9.56527 9.35668C3.40648 15.5044 0.0144531 23.6789 0.0144531 32.3731C0.0144531 39.4377 2.24345 46.1574 6.46099 51.8061C6.65819 52.0702 6.96055 52.209 7.26675 52.209C7.47477 52.209 7.68558 52.1448 7.8655 52.0107C8.31002 51.6803 8.40211 51.0523 8.0705 50.6086C4.11386 45.3085 2.02198 39.0031 2.02198 32.3731Z" fill="#FFB320" stroke="#FFB320" stroke-width="0.1"/>
<path d="M28.2164 45.9879H43.0604C43.6092 45.9879 44.0672 45.5952 44.1499 45.0543C44.3248 43.9133 44.5652 42.3339 44.8186 40.6454C44.9008 40.0977 45.4118 39.721 45.9602 39.8029C46.5086 39.8848 46.8868 40.3947 46.8042 40.9424C46.8042 40.9424 46.8042 40.9424 46.8042 40.9424L46.7548 40.9349L28.2164 45.9879ZM28.2164 45.9879V29.9998L36.1829 21.9574L36.1829 21.9574C36.2257 21.9141 36.2644 21.8671 36.2984 21.817C36.2985 21.8169 36.2985 21.8169 36.2985 21.8169L36.2571 21.7888L28.2164 45.9879ZM46.1344 45.3571L46.085 45.3496L39.9442 21.3963C39.96 21.8868 39.9731 24.514 38.6584 27.797C38.5344 28.106 38.5721 28.4557 38.7593 28.7308C38.946 29.0065 39.2572 29.1708 39.5902 29.1708H44.007C45.1714 29.1708 46.1188 30.117 46.1189 31.2789C46.1187 31.3516 46.1019 31.5912 46.0066 32.3525C45.9116 33.1124 45.7386 34.39 45.4268 36.5365C45.3473 37.0841 45.7276 37.5924 46.2766 37.6717C46.8255 37.7511 47.3344 37.3717 47.4139 36.8241C48.1262 31.9187 48.127 31.4725 48.127 31.2791C48.127 29.0113 46.2784 27.167 44.007 27.167H41.0184C41.92 24.3684 41.9704 22.1866 41.9533 21.4143C41.9676 21.2909 41.9746 21.1667 41.9746 21.0444V20.8996V20.8996V20.8995V20.8995V20.8994V20.8993V20.8993V20.8992V20.8992V20.8991V20.8991V20.899V20.899V20.8989V20.8988V20.8988V20.8987V20.8987V20.8986V20.8986V20.8985V20.8985V20.8984V20.8983V20.8983V20.8982V20.8982V20.8981V20.8981V20.898V20.898V20.8979V20.8979V20.8978V20.8977V20.8977V20.8976V20.8976V20.8975V20.8975V20.8974V20.8973V20.8973V20.8972V20.8972V20.8971V20.8971V20.897V20.897V20.8969V20.8968V20.8968V20.8967V20.8967V20.8966V20.8966V20.8965V20.8965V20.8964V20.8963V20.8963V20.8962V20.8962V20.8961V20.8961V20.896V20.896V20.8959V20.8958V20.8958V20.8957V20.8957V20.8956V20.8956V20.8955V20.8955V20.8954V20.8953V20.8953V20.8952V20.8952V20.8951V20.8951V20.895V20.8949V20.8949V20.8948V20.8948V20.8947V20.8947V20.8946V20.8946V20.8945V20.8944V20.8944V20.8943V20.8943V20.8942V20.8942V20.8941V20.8941V20.894V20.8939V20.8939V20.8938V20.8938V20.8937V20.8937V20.8936V20.8935V20.8935V20.8934V20.8934V20.8933V20.8933V20.8932V20.8932V20.8931V20.893V20.893V20.8929V20.8929V20.8928V20.8928V20.8927V20.8926V20.8926V20.8925V20.8925V20.8924V20.8924V20.8923V20.8923V20.8922V20.8921V20.8921V20.892V20.892V20.8919V20.8919V20.8918V20.8917V20.8917V20.8916V20.8916V20.8915V20.8915V20.8914V20.8914V20.8913V20.8912V20.8912V20.8911V20.8911V20.891V20.891V20.8909V20.8908V20.8908V20.8907V20.8907V20.8906V20.8906V20.8905V20.8904V20.8904V20.8903V20.8903V20.8902V20.8902V20.8901V20.8901V20.89V20.8899V20.8899V20.8898V20.8898V20.8897V20.8897V20.8896V20.8895V20.8895V20.8894V20.8894V20.8893V20.8893V20.8892V20.8891V20.8891V20.889V20.889V20.8889V20.8889V20.8888V20.8888V20.8887V20.8886V20.8886V20.8885V20.8885V20.8884V20.8884V20.8883V20.8882V20.8882V20.8881V20.8881V20.888V20.888V20.8879V20.8878V20.8878V20.8877V20.8877V20.8876V20.8876V20.8875V20.8875V20.8874V20.8873V20.8873V20.8872V20.8872V20.8871V20.8871V20.887V20.8869V20.8869V20.8868V20.8868V20.8867V20.8867V20.8866V20.8865V20.8865V20.8864V20.8864V20.8863V20.8863V20.8862V20.8861V20.8861V20.886V20.886V20.8859V20.8859V20.8858V20.8858V20.8857V20.8856V20.8856V20.8855V20.8855V20.8854V20.8854V20.8853V20.8852V20.8852V20.8851V20.8851V20.885V20.885V20.8849V20.8848V20.8848V20.8847V20.8847V20.8846V20.8846V20.8845V20.8844V20.8844V20.8843V20.8843V20.8842V20.8842V20.8841V20.8841V20.884V20.8839V20.8839V20.8838V20.8838V20.8837V20.8837V20.8836V20.8835V20.8835V20.8834V20.8834V20.8833V20.8833V20.8832V20.8831V20.8831V20.883V20.883V20.8829V20.8829V20.8828V20.8827V20.8827V20.8826V20.8826V20.8825V20.8825V20.8824V20.8824V20.8823V20.8822V20.8822V20.8821V20.8821V20.882V20.882V20.8819V20.8818V20.8818V20.8817V20.8817V20.8816V20.8816V20.8815V20.8814V20.8814V20.8813V20.8813V20.8812V20.8812V20.8811V20.8811V20.881V20.8809V20.8809V20.8808V20.8808V20.8807V20.8807V20.8806V20.8805V20.8805V20.8804V20.8804V20.8803V20.8803V20.8802V20.8801V20.8801V20.88V20.88V20.8799V20.8799V20.8798V20.8798V20.8797V20.8796V20.8796V20.8795V20.8795V20.8794V20.8794V20.8793V20.8792V20.8792V20.8791V20.8791V20.879V20.879V20.8789V20.8788V20.8788V20.8787V20.8787V20.8786V20.8786V20.8785V20.8785V20.8784V20.8783V20.8783V20.8782V20.8782V20.8781V20.8781V20.878V20.8779V20.8779V20.8778V20.8778V20.8777V20.8777V20.8776V20.8776V20.8775V20.8774V20.8774V20.8773V20.8773V20.8772V20.8772V20.8771V20.877V20.877V20.8769V20.8769V20.8768V20.8768V20.8767V20.8767V20.8766V20.8765V20.8765V20.8764V20.8764V20.8763V20.8763V20.8762V20.8761V20.8761V20.876V20.876V20.8759V20.8759V20.8758V20.8758V20.8757V20.8756V20.8756V20.8755V20.8755V20.8754V20.8754V20.8753V20.8753V20.8752V20.8751V20.8751V20.875V20.875V20.8749V20.8749V20.8748V20.8747V20.8747V20.8746V20.8746V20.8745V20.8745V20.8744V20.8744V20.8743V20.8742V20.8742V20.8741V20.8741V20.874V20.874V20.8739V20.8739V20.8738V20.8737V20.8737V20.8736V20.8736V20.8735V20.8735V20.8734V20.8734V20.8733V20.8732V20.8732V20.8731V20.8731V20.873V20.873V20.8729V20.8729V20.8728V20.8727V20.8727V20.8726V20.8726V20.8725V20.8725V20.8724V20.8724V20.8723V20.8722V20.8722V20.8721V20.8721V20.872V20.872V20.8719V20.8719V20.8718V20.8717V20.8717V20.8716V20.8716V20.8715V20.8715V20.8714V20.8714V20.8713V20.8712V20.8712V20.8711V20.8711V20.871V20.871V20.8709L41.9746 20.8709L41.9745 20.8693C41.9292 19.3938 41.6874 18.244 41.2187 17.3747C40.7491 16.5037 40.0534 15.9174 39.1077 15.5673L39.1076 15.5673C38.9959 15.5261 38.8777 15.5047 38.7584 15.5047C36.9849 15.5047 35.5418 16.9453 35.5418 18.7156V18.9196C35.5374 18.9761 35.5113 19.0681 35.4645 19.1885C35.4178 19.3087 35.3525 19.4527 35.2737 19.61C35.1166 19.9232 34.9073 20.2867 34.6888 20.6155L27.4601 27.913C26.955 27.3785 26.2414 27.0421 25.449 27.0421H19.8854C18.3593 27.0421 17.118 28.2808 17.118 29.8042V46.4758C17.118 47.9991 18.3593 49.2379 19.8854 49.2379H25.449C26.4144 49.2379 27.2641 48.7405 27.7592 47.9912C27.7639 47.9914 27.7691 47.9917 27.7744 47.9917H43.0604C44.6075 47.9917 45.9006 46.8837 46.1344 45.3571ZM38.5974 17.5197C38.8677 17.6341 39.1838 17.8244 39.4455 18.3039C39.7126 18.7932 39.9249 19.5873 39.967 20.9158V21.0444C39.967 21.102 39.9628 21.1611 39.9541 21.2208C39.9458 21.2784 39.9421 21.3374 39.9442 21.3961L38.5974 17.5197ZM26.2084 46.4758C26.2084 46.8939 25.8676 47.2341 25.449 47.2341H19.8854C19.4662 47.2341 19.1255 46.8939 19.1255 46.4758V29.8042C19.1255 29.3861 19.4662 29.0459 19.8854 29.0459H25.449C25.8676 29.0459 26.2084 29.3861 26.2084 29.8042V46.4758Z" fill="#FFB320" stroke="#FFB320" stroke-width="0.1"/>
</g>
<defs>
<clipPath id="clip0_1067_1766">
<rect width="65" height="65" fill="white"/>
</clipPath>
</defs>
</svg>
