<svg width="66" height="65" viewBox="0 0 66 65" fill="none" xmlns="http://www.w3.org/2000/svg">
<g clip-path="url(#clip0_1068_1789)">
<path d="M32.9618 0.00195313C31.7788 0.00195313 30.5966 0.0645878 29.4203 0.18945C28.3422 0.297909 27.2772 0.47578 26.2266 0.691612C26.0233 0.733504 25.8198 0.777701 25.6165 0.823931C19.4264 2.21193 13.7742 5.32888 9.33757 9.80102C8.92501 10.2175 8.52112 10.6463 8.12617 11.0873C-3.85838 24.6376 -2.42013 45.1904 11.3387 56.9934C24.511 68.2933 44.3386 67.5414 56.5897 55.2776C57.0031 54.8611 57.4068 54.4323 57.8011 53.9913C63.0901 48.0594 66.0047 40.4336 66.0001 32.5393C66.0001 14.5693 51.2084 0.00181755 32.9618 0.00195313ZM10.8056 11.4279C10.9796 11.25 11.1602 11.0797 11.3375 10.9073C11.5423 10.7088 11.746 10.5093 11.9553 10.3173C12.1392 10.1481 12.3286 9.9854 12.5169 9.82055C12.7295 9.63508 12.9409 9.44962 13.159 9.27066C13.3506 9.11123 13.5477 8.9583 13.7437 8.80429C13.964 8.63076 14.1843 8.45723 14.4111 8.2902C14.6115 8.14161 14.8153 7.99736 15.0201 7.85637C15.2481 7.69585 15.4771 7.53099 15.7095 7.38132C15.9177 7.24249 16.128 7.108 16.3394 6.9746C16.5751 6.82601 16.8119 6.67959 17.0509 6.54077C17.266 6.41428 17.4826 6.28982 17.7006 6.16767C17.9444 6.03101 18.1892 5.89761 18.4352 5.76746C18.6554 5.65182 18.8757 5.53861 19.0959 5.42799C19.347 5.30326 19.6003 5.18287 19.8547 5.06465C20.0749 4.96162 20.304 4.85858 20.5309 4.76097C20.7897 4.65251 21.0518 4.54405 21.3139 4.43559C21.5418 4.3434 21.7687 4.25338 21.9989 4.16662C22.2654 4.06683 22.5352 3.97356 22.805 3.88029C23.0351 3.80111 23.2653 3.72194 23.4988 3.6471C23.773 3.56033 24.0494 3.48007 24.3269 3.4009C24.5593 3.33474 24.7895 3.26641 25.0229 3.20459C25.1121 3.18181 25.2013 3.16338 25.2905 3.1406C22.0308 6.25783 19.6117 10.1265 18.2523 14.3964C15.6385 13.7175 13.108 12.7584 10.7064 11.5364C10.7428 11.4984 10.7736 11.4604 10.8056 11.4279ZM9.22194 13.1741C11.8673 14.5857 14.6725 15.6852 17.5795 16.4495C16.1544 21.3296 15.4064 26.3771 15.356 31.4547H2.15179C2.39173 24.7589 4.87798 18.3303 9.22194 13.1741ZM9.22194 51.9045C4.87826 46.7481 2.392 40.3196 2.15179 33.6239H15.356C15.4064 38.7015 16.1543 43.749 17.5795 48.6291C14.6727 49.3937 11.8675 50.4931 9.22194 51.9045ZM25.0163 61.8783C24.7939 61.823 24.5637 61.7515 24.3346 61.6853C24.056 61.605 23.7763 61.5248 23.501 61.4369C23.2686 61.3632 23.0396 61.284 22.8105 61.2048C22.5396 61.1126 22.2687 61.0183 22.0011 60.9174C21.772 60.8317 21.5462 60.7417 21.3194 60.6506C21.0562 60.5421 20.793 60.4337 20.532 60.3252C20.3073 60.2276 20.0837 60.1272 19.8613 60.0237C19.6047 59.9044 19.3492 59.7829 19.0904 59.6571C18.8702 59.5487 18.6499 59.4402 18.4296 59.322C18.1808 59.1908 17.9341 59.0563 17.6874 58.9174C17.4671 58.7971 17.2579 58.6734 17.0453 58.5476C16.8031 58.4044 16.5652 58.2569 16.3273 58.1062C16.1181 57.9749 15.9088 57.8415 15.7029 57.7049C15.4683 57.5487 15.236 57.386 15.0058 57.2233C14.8043 57.0812 14.6027 56.9392 14.4045 56.7895C14.1765 56.6203 13.953 56.4457 13.7305 56.27C13.5356 56.117 13.3418 55.9652 13.1513 55.8079C12.931 55.6279 12.7185 55.4403 12.5048 55.2537C12.3176 55.0899 12.1293 54.9283 11.9465 54.7613C11.7361 54.5683 11.5324 54.3676 11.3276 54.1691C11.1503 53.9967 10.9696 53.8264 10.7956 53.6496C10.7637 53.616 10.7329 53.5813 10.7009 53.5488C13.1024 52.3262 15.6328 51.3667 18.2468 50.6876C19.6065 54.9574 22.0254 58.8259 25.285 61.9434C25.1958 61.9207 25.1055 61.9022 25.0163 61.8783ZM31.8607 62.8219C27.1484 62.1625 23.0175 57.3188 20.4185 50.1659C24.1761 49.3373 28.0105 48.8928 31.8607 48.8395V62.8219ZM31.8607 46.6703C27.7764 46.7232 23.7093 47.201 19.7269 48.0955C18.3442 43.3901 17.6147 38.522 17.5585 33.6239H31.8607V46.6703ZM31.8607 31.4547H17.5585C17.6146 26.5566 18.344 21.6885 19.7269 16.9831C23.7093 17.8775 27.7765 18.3553 31.8607 18.4083V31.4547ZM31.8607 16.2391C28.0104 16.1862 24.1761 15.7417 20.4185 14.9127C23.0175 7.75984 27.1484 2.91609 31.8607 2.25667V16.2391ZM56.702 13.1741C61.0457 18.3305 63.532 24.759 63.7722 31.4547H50.568C50.5176 26.3771 49.7697 21.3296 48.3445 16.4495C51.2513 15.6847 54.0565 14.5854 56.702 13.1741ZM40.8988 3.19917C41.1301 3.25557 41.3603 3.32715 41.5893 3.39331C41.8679 3.47357 42.1477 3.55383 42.423 3.64168C42.6554 3.71543 42.8844 3.7946 43.1135 3.87378C43.3844 3.96597 43.6553 4.06033 43.9229 4.16119C44.152 4.24687 44.3777 4.33689 44.6046 4.428C44.8678 4.53646 45.131 4.64492 45.392 4.75338C45.6167 4.85099 45.8402 4.95145 46.0627 5.05489C46.3193 5.17419 46.5748 5.29567 46.8336 5.42148C47.0538 5.52994 47.2741 5.63839 47.4943 5.75661C47.7432 5.88785 47.9899 6.02234 48.2366 6.16116C48.4568 6.28155 48.6661 6.40519 48.8786 6.53101C49.1209 6.67417 49.3588 6.82167 49.5967 6.97243C49.8059 7.10367 50.0151 7.23707 50.2211 7.37373C50.4556 7.52991 50.6869 7.69151 50.9171 7.8542C51.1197 7.99628 51.3212 8.13944 51.5206 8.28803C51.7474 8.45614 51.9699 8.63076 52.1934 8.80646C52.3873 8.9583 52.5822 9.11014 52.7727 9.26849C52.993 9.44853 53.2055 9.63617 53.4192 9.82271C53.6064 9.98649 53.7947 10.1481 53.9775 10.3151C54.1878 10.5082 54.3916 10.7088 54.5964 10.9073C54.7737 11.0797 54.9543 11.25 55.1283 11.4268C55.1603 11.4604 55.1911 11.4951 55.223 11.5277C52.8216 12.7503 50.2911 13.7097 47.6771 14.3888C46.3149 10.1185 43.8928 6.25023 40.6301 3.13409C40.7193 3.15687 40.8096 3.17531 40.8988 3.19917ZM34.0633 2.25667C38.7756 2.91609 42.9064 7.75984 45.5054 14.9127C41.7479 15.7413 37.9134 16.1858 34.0633 16.2391V2.25667ZM34.0633 18.4083C38.1476 18.3554 42.2147 17.8776 46.197 16.9831C47.5798 21.6885 48.3093 26.5566 48.3654 31.4547H34.0633V18.4083ZM34.0633 33.6239H48.3654C48.3094 38.522 47.58 43.3901 46.197 48.0955C42.2147 47.2011 38.1476 46.7233 34.0633 46.6703V33.6239ZM34.0633 62.8219V48.8395C37.9136 48.8924 41.7479 49.3369 45.5054 50.1659C42.9064 57.3188 38.7756 62.1625 34.0633 62.8219ZM55.1184 53.6507C54.9444 53.8275 54.7649 53.9978 54.5876 54.1702C54.3828 54.3687 54.1779 54.5693 53.9676 54.7624C53.7848 54.9305 53.5965 55.0878 53.4092 55.2559C53.1956 55.4424 52.9831 55.629 52.765 55.809C52.5723 55.9674 52.3763 56.1203 52.1802 56.2743C51.96 56.4478 51.7397 56.6214 51.5129 56.7884C51.3124 56.937 51.1087 57.0812 50.9039 57.2222C50.6759 57.3828 50.4468 57.5476 50.2145 57.6973C50.0063 57.8361 49.796 57.9706 49.5845 58.1029C49.3489 58.2526 49.1114 58.3972 48.872 58.5368C48.6518 58.6636 48.4414 58.7873 48.2245 58.9098C47.9807 59.0465 47.7355 59.1799 47.4888 59.3101C47.2686 59.4257 47.0483 59.5389 46.8281 59.6495C46.577 59.7743 46.3237 59.8946 46.0693 60.0129C45.849 60.1159 45.62 60.2189 45.3931 60.3166C45.1343 60.425 44.8722 60.5335 44.6101 60.6419C44.3821 60.733 44.1553 60.8241 43.9262 60.9098C43.6575 61.0107 43.3877 61.105 43.1168 61.1972C42.8877 61.2764 42.6587 61.3556 42.4263 61.4293C42.151 61.5172 41.8757 61.5974 41.5948 61.6766C41.3647 61.7439 41.1334 61.8111 40.901 61.8729C40.8118 61.8957 40.7226 61.9141 40.6334 61.9369C43.8932 58.8197 46.3123 54.951 47.6716 50.6811C50.2855 51.3601 52.8159 52.3191 55.2175 53.5412C55.1812 53.5802 55.1503 53.6182 55.1184 53.6507ZM56.702 51.9045C54.0567 50.4929 51.2514 49.3934 48.3445 48.6291C49.7696 43.749 50.5176 38.7015 50.568 33.6239H63.7722C63.5324 40.3196 61.046 46.7483 56.702 51.9045Z" fill="#86BA43"/>
</g>
<defs>
<clipPath id="clip0_1068_1789">
<rect width="66" height="65" fill="white"/>
</clipPath>
</defs>
</svg>
