<svg width="68" height="68" viewBox="0 0 68 68" fill="none" xmlns="http://www.w3.org/2000/svg">
<path d="M66.407 34.3883C66.407 52.318 51.7368 66.9883 33.807 66.9883C15.8773 66.9883 1.20703 52.318 1.20703 34.3883C1.20703 16.4586 15.8773 1.78829 33.807 1.78829C51.7368 1.78829 66.407 16.4586 66.407 34.3883Z" stroke="#05CE9A" stroke-width="2" stroke-miterlimit="10" stroke-linecap="round" stroke-linejoin="round"/>
<path d="M15.1588 50.169C15.9512 49.3766 17.2358 49.3766 18.0282 50.169C18.8206 50.9614 18.8206 52.2461 18.0282 53.0385C17.2358 53.8309 15.9512 53.8309 15.1588 53.0385C14.3664 52.2461 14.3664 50.9614 15.1588 50.169Z" fill="#05CE9A"/>
<path d="M49.5884 15.7374C50.3807 14.945 51.6655 14.945 52.4579 15.7374C53.2503 16.5298 53.2503 17.8145 52.4579 18.6069C51.6655 19.3993 50.3807 19.3993 49.5884 18.6069C48.796 17.8145 48.796 16.5298 49.5884 15.7374Z" fill="#05CE9A"/>
<path d="M18.0282 15.7374C18.8206 16.5298 18.8206 17.8145 18.0282 18.6069C17.236 19.3993 15.9512 19.3993 15.1588 18.6069C14.3664 17.8145 14.3664 16.5298 15.1588 15.7374C15.9512 14.945 17.236 14.945 18.0282 15.7374Z" fill="#05CE9A"/>
<path d="M52.4579 50.169C53.2503 50.9614 53.2503 52.2461 52.4579 53.0385C51.6655 53.8309 50.3809 53.8309 49.5884 53.0385C48.796 52.2461 48.796 50.9614 49.5884 50.169C50.3809 49.3766 51.6655 49.3766 52.4579 50.169Z" fill="#05CE9A"/>
<path d="M33.8066 10.0415V14.0996" stroke="#05CE9A" stroke-width="2" stroke-miterlimit="10" stroke-linecap="round" stroke-linejoin="round"/>
<path d="M33.8066 54.6782V58.7363" stroke="#05CE9A" stroke-width="2" stroke-miterlimit="10" stroke-linecap="round" stroke-linejoin="round"/>
<path d="M9.46094 34.3887H13.519" stroke="#05CE9A" stroke-width="2" stroke-miterlimit="10" stroke-linecap="round" stroke-linejoin="round"/>
<path d="M54.0957 34.3887H58.1538" stroke="#05CE9A" stroke-width="2" stroke-miterlimit="10" stroke-linecap="round" stroke-linejoin="round"/>
<path d="M33.8066 22.212V34.3863L45.9809 46.5605" stroke="#05CE9A" stroke-width="2" stroke-miterlimit="10" stroke-linecap="round" stroke-linejoin="round"/>
</svg>
